<mxfile host="app.diagrams.net" modified="2023-12-29T12:26:07.798Z" agent="Mozilla/5.0 (Windows NT 10.0; Win64; x64; rv:121.0) Gecko/20100101 Firefox/121.0" etag="vo8Ng7M9UNVTETX7nnYX" version="22.1.15" type="github">
  <diagram name="Seite-1" id="BjrcSLvYUT0Mr-v23Buy">
    <mxGraphModel dx="819" dy="442" grid="1" gridSize="10" guides="1" tooltips="1" connect="1" arrows="1" fold="1" page="1" pageScale="1" pageWidth="827" pageHeight="583" math="0" shadow="0">
      <root>
        <mxCell id="0" />
        <mxCell id="1" parent="0" />
        <mxCell id="6R40W74hgl35K_KRWDg8-1" value="" style="ellipse;whiteSpace=wrap;html=1;aspect=fixed;fillColor=#000000;" vertex="1" parent="1">
          <mxGeometry x="370" y="120" width="24" height="24" as="geometry" />
        </mxCell>
        <mxCell id="6R40W74hgl35K_KRWDg8-2" value="" style="endArrow=classic;html=1;rounded=0;exitX=0.5;exitY=1;exitDx=0;exitDy=0;entryX=0.5;entryY=0;entryDx=0;entryDy=0;" edge="1" parent="1" source="6R40W74hgl35K_KRWDg8-1" target="6R40W74hgl35K_KRWDg8-3">
          <mxGeometry width="50" height="50" relative="1" as="geometry">
            <mxPoint x="410" y="290" as="sourcePoint" />
            <mxPoint x="380" y="180" as="targetPoint" />
          </mxGeometry>
        </mxCell>
        <mxCell id="6R40W74hgl35K_KRWDg8-6" style="edgeStyle=orthogonalEdgeStyle;rounded=0;orthogonalLoop=1;jettySize=auto;html=1;exitX=0.5;exitY=1;exitDx=0;exitDy=0;entryX=0.5;entryY=0;entryDx=0;entryDy=0;" edge="1" parent="1" source="6R40W74hgl35K_KRWDg8-3" target="6R40W74hgl35K_KRWDg8-5">
          <mxGeometry relative="1" as="geometry" />
        </mxCell>
        <mxCell id="6R40W74hgl35K_KRWDg8-3" value="6 Tokens für Team White platzieren" style="rounded=1;whiteSpace=wrap;html=1;" vertex="1" parent="1">
          <mxGeometry x="322" y="190" width="120" height="60" as="geometry" />
        </mxCell>
        <mxCell id="6R40W74hgl35K_KRWDg8-9" style="edgeStyle=orthogonalEdgeStyle;rounded=0;orthogonalLoop=1;jettySize=auto;html=1;exitX=0.5;exitY=1;exitDx=0;exitDy=0;entryX=0.5;entryY=0;entryDx=0;entryDy=0;" edge="1" parent="1" source="6R40W74hgl35K_KRWDg8-5" target="6R40W74hgl35K_KRWDg8-7">
          <mxGeometry relative="1" as="geometry" />
        </mxCell>
        <mxCell id="6R40W74hgl35K_KRWDg8-5" value="6 Tokens für Team Black platzieren" style="rounded=1;whiteSpace=wrap;html=1;" vertex="1" parent="1">
          <mxGeometry x="322" y="292" width="120" height="60" as="geometry" />
        </mxCell>
        <mxCell id="6R40W74hgl35K_KRWDg8-7" value="" style="ellipse;whiteSpace=wrap;html=1;aspect=fixed;" vertex="1" parent="1">
          <mxGeometry x="367" y="380" width="30" height="30" as="geometry" />
        </mxCell>
        <mxCell id="6R40W74hgl35K_KRWDg8-8" value="" style="ellipse;whiteSpace=wrap;html=1;aspect=fixed;fillColor=#050505;" vertex="1" parent="1">
          <mxGeometry x="372" y="385" width="20" height="20" as="geometry" />
        </mxCell>
        <mxCell id="6R40W74hgl35K_KRWDg8-10" value="&lt;font style=&quot;font-size: 11px;&quot;&gt;Die Aufstellung der Tokens entspricht der Startaufstellung gemäß der Uisge-Spielregeln&lt;/font&gt;" style="shape=note2;boundedLbl=1;whiteSpace=wrap;html=1;size=25;verticalAlign=top;align=center;" vertex="1" parent="1">
          <mxGeometry x="100" y="200" width="130" height="130" as="geometry" />
        </mxCell>
        <mxCell id="6R40W74hgl35K_KRWDg8-12" value="" style="endArrow=none;dashed=1;html=1;dashPattern=1 3;strokeWidth=2;rounded=0;exitX=1.012;exitY=0.582;exitDx=0;exitDy=0;exitPerimeter=0;" edge="1" parent="1" source="6R40W74hgl35K_KRWDg8-10">
          <mxGeometry width="50" height="50" relative="1" as="geometry">
            <mxPoint x="240" y="280" as="sourcePoint" />
            <mxPoint x="320" y="220" as="targetPoint" />
          </mxGeometry>
        </mxCell>
        <mxCell id="6R40W74hgl35K_KRWDg8-13" value="" style="endArrow=none;dashed=1;html=1;dashPattern=1 3;strokeWidth=2;rounded=0;exitX=1.01;exitY=0.558;exitDx=0;exitDy=0;exitPerimeter=0;entryX=0;entryY=0.5;entryDx=0;entryDy=0;" edge="1" parent="1" source="6R40W74hgl35K_KRWDg8-10" target="6R40W74hgl35K_KRWDg8-5">
          <mxGeometry width="50" height="50" relative="1" as="geometry">
            <mxPoint x="250" y="290" as="sourcePoint" />
            <mxPoint x="330" y="230" as="targetPoint" />
          </mxGeometry>
        </mxCell>
      </root>
    </mxGraphModel>
  </diagram>
</mxfile>
